<svg xmlns="http://www.w3.org/2000/svg" viewBox="0 0 512 512">
  <rect width="512" height="512" rx="100" fill="#002f5d"/>
  <path d="M160 96h192a32 32 0 0 1 32 32v256a32 32 0 0 1-32 32H160a32 32 0 0 1-32-32V128a32 32 0 0 1 32-32z" fill="#fdb913"/>
  <path d="M160 128h160v224H160z" fill="#ffffff"/>
  <rect x="176" y="160" width="128" height="8" rx="4" fill="#002f5d"/>
  <rect x="176" y="192" width="128" height="8" rx="4" fill="#002f5d"/>
  <rect x="176" y="224" width="128" height="8" rx="4" fill="#002f5d"/>
  <rect x="176" y="256" width="80" height="8" rx="4" fill="#002f5d"/>
</svg>
